<?xml version="1.0" standalone="no"?>
<!DOCTYPE svg PUBLIC "-//W3C//DTD SVG 20010904//EN"
 "http://www.w3.org/TR/2001/REC-SVG-20010904/DTD/svg10.dtd">
<svg version="1.0" xmlns="http://www.w3.org/2000/svg"
 width="400.000000pt" height="400.000000pt" viewBox="0 0 400.000000 400.000000"
 preserveAspectRatio="xMidYMid meet">

<g transform="translate(0.000000,400.000000) scale(0.100000,-0.100000)"
fill="#000000" stroke="none">
<path d="M1805 3693 c-280 -36 -566 -146 -785 -300 -122 -87 -327 -291 -412
-413 -128 -181 -234 -426 -279 -648 -26 -127 -36 -404 -19 -539 32 -261 122
-507 263 -721 82 -125 109 -158 215 -266 522 -531 1320 -663 1980 -327 334
171 582 419 753 753 392 769 140 1713 -586 2191 -216 142 -458 232 -718 267
-74 9 -346 12 -412 3z m426 -329 c269 -46 520 -172 720 -362 398 -378 534
-930 358 -1456 -64 -193 -169 -357 -334 -521 -129 -130 -224 -199 -370 -270
-683 -333 -1504 -52 -1844 632 -97 194 -141 386 -141 613 0 229 44 417 146
620 194 387 570 667 999 744 111 20 349 20 466 0z"/>
<path d="M1760 2430 l0 -240 240 0 240 0 0 240 0 240 -240 0 -240 0 0 -240z"/>
<path d="M1760 1570 l0 -240 240 0 240 0 0 240 0 240 -240 0 -240 0 0 -240z"/>
</g>
</svg>
