<?xml version="1.0" standalone="no"?>
<!DOCTYPE svg PUBLIC "-//W3C//DTD SVG 20010904//EN"
 "http://www.w3.org/TR/2001/REC-SVG-20010904/DTD/svg10.dtd">
<svg version="1.0" xmlns="http://www.w3.org/2000/svg"
 width="168.000000pt" height="168.000000pt" viewBox="0 0 168.000000 168.000000"
 preserveAspectRatio="xMidYMid meet">

<g transform="translate(0.000000,168.000000) scale(0.100000,-0.100000)"
fill="#000000" stroke="none">
<path d="M267 1034 c-10 -11 -8 -262 2 -268 5 -4 16 -3 25 0 24 9 19 267 -4
272 -9 1 -19 0 -23 -4z"/>
<path d="M406 1025 c-3 -9 -6 -67 -6 -130 0 -86 3 -115 15 -125 28 -23 35 0
35 111 l0 109 48 0 c53 0 72 -12 72 -48 0 -17 -9 -27 -35 -38 -19 -8 -35 -18
-35 -23 0 -12 128 -231 146 -251 12 -12 16 -12 29 1 14 14 10 26 -45 117 -33
56 -60 104 -60 107 0 2 11 15 25 29 33 33 34 85 1 123 -22 25 -31 28 -104 31
-67 3 -80 1 -86 -13z"/>
<path d="M664 1025 c-8 -21 4 -35 31 -35 28 0 38 12 29 34 -8 20 -53 21 -60 1z"/>
<path d="M746 1024 c-3 -9 -6 -66 -6 -129 0 -86 3 -115 15 -125 28 -23 35 0
35 111 l0 109 39 0 c43 0 55 9 45 34 -9 23 -119 23 -128 0z"/>
<path d="M940 1015 c-26 -28 -31 -75 -10 -100 7 -8 37 -22 67 -31 58 -17 73
-35 52 -60 -13 -16 -46 -15 -96 1 -16 5 -24 2 -33 -14 -9 -19 -7 -23 17 -32
15 -6 47 -14 70 -16 37 -5 46 -2 73 25 17 17 30 41 30 55 0 39 -36 76 -81 83
-21 4 -46 12 -56 19 -15 11 -15 15 -3 30 11 13 23 16 50 11 75 -12 75 -12 75
9 0 25 -39 45 -91 45 -30 0 -46 -6 -64 -25z"/>
<path d="M493 663 c9 -2 23 -2 30 0 6 3 -1 5 -18 5 -16 0 -22 -2 -12 -5z"/>
<path d="M343 653 c20 -2 54 -2 75 0 20 2 3 4 -38 4 -41 0 -58 -2 -37 -4z"/>
<path d="M740 580 l0 -50 60 0 60 0 0 50 0 50 -60 0 -60 0 0 -50z"/>
</g>
</svg>
