<?xml version="1.0" standalone="no"?>
<!DOCTYPE svg PUBLIC "-//W3C//DTD SVG 20010904//EN"
 "http://www.w3.org/TR/2001/REC-SVG-20010904/DTD/svg10.dtd">
<svg version="1.0" xmlns="http://www.w3.org/2000/svg"
 width="378.000000pt" height="133.000000pt" viewBox="0 0 378.000000 133.000000"
 preserveAspectRatio="xMidYMid meet">

<g transform="translate(0.000000,133.000000) scale(0.100000,-0.100000)"
fill="#000000" stroke="none">
<path d="M2970 983 c-111 -11 -209 -25 -237 -34 l-33 -11 0 -123 0 -124 429
-3 429 -3 44 -30 c25 -18 51 -47 63 -72 27 -56 45 -56 45 2 0 25 5 45 10 45 6
0 10 11 10 24 0 14 -4 28 -10 31 -5 3 -10 17 -10 29 0 34 -26 93 -70 157 -21
32 -37 59 -34 61 8 8 -69 38 -125 48 -49 9 -429 12 -511 3z m-10 -163 l0 -90
-90 0 -90 0 0 90 0 90 90 0 90 0 0 -90z m225 0 l0 -85 -90 0 -90 0 -3 74 c-2
41 -1 80 2 88 4 11 26 13 93 11 l88 -3 0 -85z m220 0 l0 -85 -90 0 -90 0 -3
74 c-2 41 -1 80 2 88 4 11 26 13 93 11 l88 -3 0 -85z m185 64 c36 -31 70 -93
70 -129 l0 -25 -115 0 -115 0 0 90 0 90 64 0 c55 0 69 -4 96 -26z"/>
<path d="M172 927 c-31 -32 -78 -142 -103 -238 -26 -102 -24 -204 6 -225 31
-23 80 -16 151 21 37 19 68 35 70 35 2 0 4 -8 4 -18 0 -62 102 -68 214 -13 59
29 66 35 66 62 0 17 -4 28 -8 25 -5 -3 -32 -21 -60 -40 -64 -43 -130 -56 -149
-30 -24 34 -16 52 36 74 59 26 99 65 107 106 11 58 -50 83 -117 48 -32 -16
-89 -96 -89 -125 0 -38 -138 -127 -174 -113 -19 7 -30 45 -22 77 3 12 30 55
61 94 30 39 66 95 80 125 26 57 33 126 13 146 -19 19 -63 14 -86 -11z m58 -58
c0 -17 -7 -44 -17 -62 -26 -50 -86 -138 -91 -133 -7 8 47 170 69 205 22 37 39
33 39 -10z m230 -179 c0 -24 -31 -57 -67 -71 -32 -12 -38 -7 -23 23 32 61 90
92 90 48z"/>
<path d="M762 713 c-32 -82 -43 -204 -22 -244 18 -33 65 -24 115 22 28 26 45
36 45 27 0 -9 9 -27 21 -42 33 -43 73 -36 129 22 l47 49 24 -20 c19 -16 34
-18 77 -14 38 4 52 2 52 -7 0 -21 45 -56 73 -56 17 0 42 14 67 36 40 36 40 36
40 11 0 -56 53 -59 125 -6 36 27 41 28 50 13 37 -63 85 -71 140 -23 20 18 37
30 39 28 2 -2 -1 -18 -5 -34 -5 -19 -27 -44 -58 -68 -28 -20 -57 -50 -65 -66
-13 -25 -13 -31 0 -50 12 -16 25 -21 58 -21 53 0 71 18 96 97 15 51 25 64 81
107 44 35 64 45 67 36 3 -8 15 -24 28 -37 43 -43 138 -21 179 41 16 24 18 24
41 9 17 -10 37 -14 64 -10 38 5 39 4 42 -27 2 -26 8 -32 31 -34 27 -3 27 -3
27 61 0 64 0 65 48 109 57 54 88 72 97 58 3 -5 -3 -44 -15 -85 -32 -115 -14
-156 59 -140 43 9 111 71 111 101 0 24 -1 24 -51 -16 -83 -66 -95 -52 -59 69
41 135 -19 173 -125 79 -52 -46 -50 -47 -29 30 6 19 3 22 -24 22 -28 0 -31 -3
-47 -67 -9 -38 -19 -73 -21 -80 -1 -6 -15 -20 -29 -29 -25 -16 -29 -16 -53 -1
-25 15 -27 20 -24 80 4 62 3 64 -22 69 -23 5 -27 1 -36 -32 -6 -21 -7 -51 -4
-67 10 -48 -41 -123 -83 -123 -44 0 -59 99 -23 157 11 18 35 39 55 47 49 21
49 51 0 43 -53 -9 -93 -43 -123 -105 -24 -49 -114 -143 -126 -131 -4 3 21 138
39 217 5 19 1 22 -25 22 -23 0 -30 -4 -30 -20 0 -11 -4 -20 -8 -20 -5 0 -17 9
-27 20 -50 56 -165 -12 -190 -112 -8 -31 -77 -98 -100 -98 -21 0 -19 29 9 138
l24 92 -28 0 c-20 0 -31 -6 -35 -21 l-7 -21 -22 21 c-15 14 -36 21 -60 21 -32
0 -46 -7 -82 -44 -26 -25 -47 -57 -50 -75 -7 -34 -46 -71 -74 -71 -10 0 -29 9
-43 20 -25 19 -25 21 -11 67 8 25 14 59 14 75 0 23 -4 28 -25 28 -39 0 -48
-25 -55 -162 0 -4 -14 -23 -31 -43 -76 -86 -102 -4 -49 151 l19 55 -31 -3
c-30 -3 -33 -7 -58 -87 -22 -67 -36 -92 -65 -119 -37 -34 -39 -34 -52 -16 -18
24 -3 119 32 207 6 14 2 17 -23 17 -23 0 -32 -6 -40 -27z m676 -36 c19 -20 20
-27 11 -62 -20 -72 -93 -140 -124 -115 -37 31 -29 114 17 166 35 40 66 43 96
11z m353 -3 c23 -22 26 -30 18 -56 -10 -37 -52 -93 -86 -115 -25 -16 -26 -16
-44 6 -34 42 -21 121 27 166 34 32 51 31 85 -1z m-37 -321 c-8 -34 -22 -53
-40 -53 -26 0 -26 22 2 51 35 36 46 37 38 2z"/>
<path d="M2948 653 l-258 -3 0 -69 c0 -38 -3 -83 -6 -100 l-7 -32 64 3 c57 3
64 5 67 25 5 36 67 83 110 83 51 0 97 -31 113 -74 l13 -36 163 0 c159 0 163 1
163 21 0 12 15 36 34 55 29 29 41 34 81 34 40 0 52 -5 81 -34 19 -19 34 -43
34 -55 0 -19 6 -21 65 -21 60 0 65 2 71 24 8 34 -2 46 -40 46 -27 0 -36 5 -45
29 -16 36 -68 87 -104 100 -17 7 -93 10 -185 9 -86 -2 -273 -4 -414 -5z"/>
<path d="M2859 511 c-21 -22 -29 -39 -29 -66 0 -45 45 -95 85 -95 41 0 82 26
94 62 33 95 -79 170 -150 99z m107 -36 c21 -33 6 -72 -31 -81 -50 -13 -86 53
-49 90 24 24 61 20 80 -9z"/>
<path d="M3420 512 c-38 -39 -41 -88 -6 -129 20 -23 32 -28 70 -28 62 0 91 29
91 90 0 56 -26 84 -83 92 -36 5 -45 2 -72 -25z m105 -32 c41 -45 -18 -110 -70
-76 -29 19 -32 51 -8 78 21 24 55 23 78 -2z"/>
</g>
</svg>
